<?xml version="1.0" encoding="UTF-8" standalone="no"?>
<!-- Created with Inkscape (http://www.inkscape.org/) -->

<svg
   width="200px"
   height="200px"
   viewBox="0 -20 190 277"
   version="1.1"
   id="svg5"
   xml:space="preserve"
   inkscape:export-filename="logo-mech-keyboards.svg"
   inkscape:export-xdpi="96"
   inkscape:export-ydpi="96"
   inkscape:version="1.2.2 (732a01da63, 2022-12-09)"
   sodipodi:docname="logo-mech-keyboards.svg"
   xmlns:inkscape="http://www.inkscape.org/namespaces/inkscape"
   xmlns:sodipodi="http://sodipodi.sourceforge.net/DTD/sodipodi-0.dtd"
   xmlns="http://www.w3.org/2000/svg"
   xmlns:svg="http://www.w3.org/2000/svg"><sodipodi:namedview
     id="namedview7"
     pagecolor="#ffffff"
     bordercolor="#000000"
     borderopacity="0.25"
     inkscape:showpageshadow="2"
     inkscape:pageopacity="0.0"
     inkscape:pagecheckerboard="0"
     inkscape:deskcolor="#d1d1d1"
     inkscape:document-units="mm"
     showgrid="false"
     inkscape:zoom="1.3435675"
     inkscape:cx="412.70721"
     inkscape:cy="675.81271"
     inkscape:window-width="1920"
     inkscape:window-height="1129"
     inkscape:window-x="-8"
     inkscape:window-y="-8"
     inkscape:window-maximized="1"
     inkscape:current-layer="layer2" /><defs
     id="defs2"><inkscape:path-effect
       effect="perspective-envelope"
       up_left_point="86.327354,95.02503"
       up_right_point="141.07101,95.02503"
       down_left_point="86.327354,121.76761"
       down_right_point="141.07101,121.76761"
       id="path-effect6554"
       is_visible="true"
       lpeversion="1"
       deform_type="perspective"
       horizontal_mirror="false"
       vertical_mirror="false"
       overflow_perspective="false" /><rect
       x="185.50113"
       y="109.39811"
       width="299.65568"
       height="186.69024"
       id="rect2548" /><rect
       x="166.47538"
       y="115.34365"
       width="323.43788"
       height="184.31202"
       id="rect2542" /><rect
       x="128.42386"
       y="79.670359"
       width="325.8161"
       height="199.77045"
       id="rect2533" /><rect
       x="105.83078"
       y="103.45256"
       width="246.14574"
       height="170.04271"
       id="rect2523" /><rect
       x="322.24877"
       y="359.11117"
       width="194.86171"
       height="219.95931"
       id="rect2467" /><rect
       x="330.57253"
       y="367.43494"
       width="179.55559"
       height="96.317897"
       id="rect2457" /><rect
       x="328.19432"
       y="355.54384"
       width="192.63579"
       height="96.317897"
       id="rect2450" /></defs><g
     inkscape:groupmode="layer"
     id="layer2"
     inkscape:label="Layer 2"><g
       id="g2394"
       transform="matrix(2.1349652,0,0,2.0881388,-127.40116,-146.3984)"
       style="stroke:#ffffff;stroke-opacity:1"><path
         style="fill:none;fill-opacity:1;stroke:#ffffff;stroke-width:3.165;stroke-dasharray:none;stroke-opacity:1"
         d="m 76.137711,100.67796 c 0,0 6.606993,18.87712 6.606993,20.1356 0,1.25847 8.80932,6.60699 26.113346,5.97775 17.30402,-0.62924 30.51801,-2.51695 30.51801,-2.51695 0,0 10.38241,-0.62923 5.66313,-10.06779 -4.71928,-9.43856 -10.0678,-22.967165 -10.0678,-22.967165 0,0 -0.57297,-3.145348 -21.70868,-3.460806 -21.079449,-0.314618 -34.922668,3.146189 -34.922668,3.146189 0,0 -5.663136,5.977753 -2.202331,9.753172 z"
         id="path319"
         sodipodi:nodetypes="csscscscc" /><path
         style="fill:none;fill-opacity:1;stroke:#ffffff;stroke-width:3.165;stroke-dasharray:none;stroke-opacity:1"
         d="M 75.823092,95.014828 61.350636,121.12818 c 0,0 -1.887712,0.31462 2.202331,16.67479 4.090043,16.36017 2.831568,36.81038 29.57415,34.92267 26.742583,-1.88771 50.024363,-4.40466 50.024363,-4.40466 0,0 15.1017,-1.88772 13.84322,-6.29238 -1.25847,-4.40466 -11.01165,-44.67584 -11.01165,-44.67584"
         id="path2294"
         sodipodi:nodetypes="ccsscsc" /></g></g><g
     inkscape:groupmode="layer"
     id="layer3"
     inkscape:label="Layer 3"><g
       aria-label="W"
       transform="matrix(0.56487623,0,0,0.55248672,-18.585794,-4.4934424)"
       id="text2546"
       style="font-size:85.3333px;font-family:Calibri;-inkscape-font-specification:Calibri;white-space:pre;shape-inside:url(#rect2548);fill:none;stroke:#ffffff;stroke-width:11.9622;stroke-opacity:1"><path
         d="m 297.57106,183.92444 c -0.11111,0.38889 -0.27778,0.70833 -0.5,0.95833 -0.22223,0.22223 -0.52778,0.40278 -0.91667,0.54167 -0.38889,0.11111 -0.875,0.19445 -1.45833,0.25 -0.55556,0.0555 -1.25001,0.0833 -2.08334,0.0833 -0.86111,0 -1.59722,-0.0278 -2.20833,-0.0833 -0.58333,-0.0555 -1.06944,-0.13887 -1.45833,-0.25 -0.38889,-0.13889 -0.68055,-0.31944 -0.875,-0.54167 -0.19445,-0.25 -0.34722,-0.56944 -0.45833,-0.95833 l -76.62027,-62.31393 h -0.0833 l -27.74518,68.04035 c -0.0833,0.38889 -0.22222,0.70833 -0.41667,0.95833 -0.19444,0.22223 -0.47222,0.40278 -0.83333,0.54167 -0.36111,0.11111 -0.83334,0.19445 -1.41667,0.25 -0.55555,0.0555 -1.27777,0.0833 -2.16666,0.0833 -0.91667,0 -1.68056,-0.0278 -2.29167,-0.0833 -0.61111,-0.0555 -1.11111,-0.13887 -1.5,-0.25 -0.38889,-0.13889 -0.69444,-0.31944 -0.91666,-0.54167 -0.19445,-0.25 -0.33334,-0.56944 -0.41667,-0.95833 l -53.02037,-81.42002 c -0.16667,-0.63889 -0.26389,-1.13889 -0.29167,-1.49999 0,-0.36112 0.11111,-0.6389 0.33333,-0.83334 0.25,-0.19444 0.63889,-0.31944 1.16667,-0.375 0.52777,-0.0555 1.2361,-0.0833 2.125,-0.0833 0.8611,0 1.54166,0.0278 2.04166,0.0833 0.5,0.0278 0.875,0.0972 1.125,0.20834 0.27778,0.1111 0.45833,0.26388 0.54167,0.45833 0.11111,0.19444 0.19444,0.44444 0.25,0.75 l 50.89537,76.79502 h 0.0417 l 28.82852,-72.41535 c 0.0833,-0.30555 0.18055,-0.55555 0.29166,-0.75 0.13889,-0.22222 0.34723,-0.38889 0.625,-0.5 0.27778,-0.11111 0.66667,-0.19444 1.16667,-0.25 0.52777,-0.0555 1.20833,-0.0833 2.04166,-0.0833 0.77778,0 1.38889,0.0278 1.83334,0.0833 0.47222,0.0555 0.84722,0.13887 1.125,0.25 0.27777,0.11111 0.47222,0.27778 0.58333,0.5 0.13889,0.19445 0.25,0.44445 0.33333,0.75 l 77.7036,66.68893 h 0.0833 l -2.03721,-77.0099 c 0.0833,-0.27777 0.16667,-0.51388 0.25,-0.70833 0.0833,-0.22222 0.25,-0.388884 0.5,-0.500004 0.27777,-0.1111 0.65277,-0.19444 1.12499,-0.25 0.5,-0.0555 1.15278,-0.0833 1.95834,-0.0833 0.83333,0 1.48611,0.0417 1.95833,0.125 0.5,0.0555 0.86111,0.18054 1.08333,0.375 0.22223,0.194454 0.31945,0.472234 0.29167,0.833334 0,0.36112 -0.0694,0.86112 -0.20833,1.5 z"
         id="path2552"
         sodipodi:nodetypes="ccccsccccccccccssccccccssccccccccscscsccccccccscsccc"
         style="stroke:#ffffff;stroke-opacity:1" /></g></g></svg>
